<svg width="28" height="29" xmlns="http://www.w3.org/2000/svg" xmlns:xlink="http://www.w3.org/1999/xlink" xml:space="preserve" overflow="hidden"><g transform="translate(-468 -341)"><path d="M21 10.15 21 5.25 18.6667 5.25 18.6667 7.93333 14 3.5 14 3.5 1.75 15.1667 3.0625 16.275 14 5.89167 14 5.89167 24.9375 16.275 26.25 15.1667Z" transform="matrix(1 0 0 1.03571 468 341)"/><path d="M5.25 15.8375 5.25 24.5 12.25 24.5 12.25 17.2083 15.75 17.2083 15.75 24.5 22.75 24.5 22.75 15.8375 14 7.525 5.25 15.8375ZM10.5 20.7083 7 20.7083 7 17.2083 10.5 17.2083 10.5 20.7083ZM17.5 17.2083 21 17.2083 21 20.7083 17.5 20.7083 17.5 17.2083Z" transform="matrix(1 0 0 1.03571 468 341)"/></g></svg>