<svg width="31" height="31" xmlns="http://www.w3.org/2000/svg" xmlns:xlink="http://www.w3.org/1999/xlink" xml:space="preserve" overflow="hidden"><g transform="translate(-247 -341)"><path d="M249.583 347.458 249.583 365.542 275.417 365.542 275.417 347.458 249.583 347.458ZM262.952 358.728C262.694 358.986 262.306 358.986 262.048 358.728L252.49 349.396 272.543 349.396 262.952 358.728ZM257.818 356.403 251.521 362.732 251.521 350.235 257.818 356.403ZM258.754 357.307 261.176 359.665C261.564 360.02 262.048 360.214 262.532 360.214 263.017 360.214 263.501 360.02 263.889 359.665L266.31 357.307 272.575 363.604 252.457 363.604 258.754 357.307ZM267.182 356.403 273.479 350.268 273.479 362.7 267.182 356.403Z"/></g></svg>