<svg width="24" height="23" xmlns="http://www.w3.org/2000/svg" xmlns:xlink="http://www.w3.org/1999/xlink" xml:space="preserve" overflow="hidden"><g transform="translate(-93 -346)"><path d="M9.39167 6.99583C9.58333 6.80417 9.70312 6.54062 9.70312 6.25313 9.70312 5.96562 9.58333 5.70208 9.39167 5.51042L6.08542 2.22813C5.89375 2.03646 5.63021 1.91667 5.36667 1.91667 5.10312 1.91667 4.81563 2.03646 4.62396 2.22813L4.26458 2.5875 9.03229 7.35521 9.39167 6.99583Z" stroke="#000000" stroke-width="0.333332" transform="matrix(1.04348 0 0 1 93 346)"/><path d="M14.2073 15.4531C14.1115 15.549 13.9677 15.5969 13.8479 15.5969 13.7281 15.5969 13.5844 15.549 13.4885 15.4531L7.54688 9.53542C7.45104 9.43958 7.40312 9.29583 7.40312 9.17604 7.40312 9.05625 7.45104 8.9125 7.54688 8.81667L8.28958 8.09792 3.52187 3.33021C3.21042 3.64167 2.92292 3.92917 2.73125 4.12083 2.25208 4.57604 1.96458 5.175 1.94063 5.82187 1.86875 6.9 2.13229 7.93021 2.49167 8.93646 2.875 9.82292 3.37812 10.6615 3.92917 11.4521 5.89375 14.399 8.36146 16.9625 11.2365 18.999 11.7156 19.3583 12.2188 19.6698 12.7458 19.9573 13.9437 20.5562 15.2135 20.9875 16.5792 21.0833 17.4896 21.1552 18.4 20.7958 19.0229 20.125L19.6698 19.4781 14.926 14.7104 14.2073 15.4531Z" stroke="#000000" stroke-width="0.333332" transform="matrix(1.04348 0 0 1 93 346)"/><path d="M20.7719 16.9146 17.4656 13.6083C17.274 13.4167 17.0104 13.2969 16.7229 13.2969 16.4354 13.2969 16.1719 13.4167 15.9802 13.6083L15.6208 13.9917 20.3885 18.7594 20.7479 18.4C20.9396 18.2083 21.0594 17.9448 21.0594 17.6573 21.0594 17.3698 20.9635 17.1063 20.7719 16.9146Z" stroke="#000000" stroke-width="0.333332" transform="matrix(1.04348 0 0 1 93 346)"/></g></svg>